<svg width="110" height="110" viewBox="0 0 110 110" fill="none" xmlns="http://www.w3.org/2000/svg">
<g clip-path="url(#clip0_280_440)">
<path d="M89.375 0H20.625C15.1568 0.00606571 9.91425 2.181 6.04762 6.04762C2.181 9.91425 0.00606571 15.1568 0 20.625L0 89.375C0.00606571 94.8432 2.181 100.086 6.04762 103.952C9.91425 107.819 15.1568 109.994 20.625 110H89.375C94.8432 109.994 100.086 107.819 103.952 103.952C107.819 100.086 109.994 94.8432 110 89.375V20.625C109.994 15.1568 107.819 9.91425 103.952 6.04762C100.086 2.181 94.8432 0.00606571 89.375 0V0ZM20.625 13.75H89.375C91.1984 13.75 92.947 14.4743 94.2364 15.7636C95.5257 17.053 96.25 18.8016 96.25 20.625V89.375C96.2512 90.2778 96.0736 91.172 95.7275 92.0058C95.3814 92.8397 94.8736 93.5967 94.2333 94.2333L54.2117 54.2117C50.7737 50.7747 46.1113 48.8439 41.25 48.8439C36.3887 48.8439 31.7263 50.7747 28.2883 54.2117L13.75 68.75V20.625C13.75 18.8016 14.4743 17.053 15.7636 15.7636C17.053 14.4743 18.8016 13.75 20.625 13.75V13.75Z" fill="#015B40" fill-opacity="0.8"/>
<path d="M71.0413 45.832C77.3696 45.832 82.4996 40.7019 82.4996 34.3736C82.4996 28.0454 77.3696 22.9153 71.0413 22.9153C64.7131 22.9153 59.583 28.0454 59.583 34.3736C59.583 40.7019 64.7131 45.832 71.0413 45.832Z" fill="#015B40" fill-opacity="0.8"/>
</g>
<defs>
<clipPath id="clip0_280_440">
<rect width="110" height="110" fill="white"/>
</clipPath>
</defs>
</svg>
