<svg width="400" height="400" viewBox="0 0 400 400" fill="none" xmlns="http://www.w3.org/2000/svg">
<circle cx="200" cy="200" r="200" fill="#E7E7E7"/>
<g clip-path="url(#clip0_832_372)">
<path d="M238.375 137H169.625C164.157 137.006 158.914 139.181 155.048 143.048C151.181 146.914 149.006 152.157 149 157.625V226.375C149.006 231.843 151.181 237.086 155.048 240.952C158.914 244.819 164.157 246.994 169.625 247H238.375C243.843 246.994 249.086 244.819 252.952 240.952C256.819 237.086 258.994 231.843 259 226.375V157.625C258.994 152.157 256.819 146.914 252.952 143.048C249.086 139.181 243.843 137.006 238.375 137V137ZM169.625 150.75H238.375C240.198 150.75 241.947 151.474 243.236 152.764C244.526 154.053 245.25 155.802 245.25 157.625V226.375C245.251 227.278 245.074 228.172 244.728 229.006C244.381 229.84 243.874 230.597 243.233 231.233L203.212 191.212C199.774 187.775 195.111 185.844 190.25 185.844C185.389 185.844 180.726 187.775 177.288 191.212L162.75 205.75V157.625C162.75 155.802 163.474 154.053 164.764 152.764C166.053 151.474 167.802 150.75 169.625 150.75V150.75Z" fill="#015B40" fill-opacity="0.8"/>
<path d="M220.041 182.832C226.37 182.832 231.5 177.702 231.5 171.374C231.5 165.045 226.37 159.915 220.041 159.915C213.713 159.915 208.583 165.045 208.583 171.374C208.583 177.702 213.713 182.832 220.041 182.832Z" fill="#015B40" fill-opacity="0.8"/>
</g>
<defs>
<clipPath id="clip0_832_372">
<rect width="110" height="110" fill="white" transform="translate(149 137)"/>
</clipPath>
</defs>
</svg>
